<svg width="31" height="30" viewBox="0 0 31 30" fill="none" xmlns="http://www.w3.org/2000/svg">
<path fill-rule="evenodd" clip-rule="evenodd" d="M4.76465 15C4.76465 14.3787 5.26833 13.875 5.88965 13.875L21.8465 13.875L15.6099 7.93593C15.162 7.50529 15.1481 6.79312 15.5787 6.34525C16.0094 5.89738 16.7215 5.88342 17.1694 6.31406L25.4194 14.1891C25.64 14.4012 25.7646 14.694 25.7646 15C25.7646 15.306 25.64 15.5988 25.4194 15.8109L17.1694 23.6859C16.7215 24.1166 16.0094 24.1026 15.5787 23.6547C15.1481 23.2069 15.162 22.4947 15.6099 22.0641L21.8465 16.125L5.88965 16.125C5.26833 16.125 4.76465 15.6213 4.76465 15Z" fill="#262626"/>
</svg>
